<?xml version="1.0" standalone="no"?>
<!DOCTYPE svg PUBLIC "-//W3C//DTD SVG 20010904//EN"
 "http://www.w3.org/TR/2001/REC-SVG-20010904/DTD/svg10.dtd">
<svg version="1.0" xmlns="http://www.w3.org/2000/svg"
 width="682.000000pt" height="682.000000pt" viewBox="0 0 682.000000 682.000000"
 preserveAspectRatio="xMidYMid meet">
<metadata>
Created by potrace 1.11, written by Peter Selinger 2001-2013
</metadata>
<g transform="translate(0.000000,682.000000) scale(0.100000,-0.100000)"
fill="#000000" stroke="none">
<path d="M3205 6804 c-462 -82 -815 -435 -890 -888 l-7 -39 -464 7 c-375 5
-464 4 -464 -6 0 -7 164 -490 364 -1073 201 -583 363 -1061 362 -1062 -2 -2
-590 175 -704 211 l-22 7 2 -698 3 -698 45 -22 c84 -41 295 -122 490 -187 247
-82 482 -142 684 -173 l49 -8 227 -650 c485 -1387 529 -1510 539 -1507 6 1 11
-2 11 -8 0 -5 6 -10 13 -10 14 0 96 236 587 1680 81 239 152 446 158 461 9 23
21 27 196 62 230 46 355 79 610 163 204 68 453 166 471 187 7 8 9 248 7 690
-3 664 -3 677 -22 677 -12 0 -20 7 -20 16 0 10 -6 14 -17 11 -10 -3 -161 -49
-337 -102 -175 -53 -322 -95 -326 -93 -9 4 337 997 355 1018 7 8 58 150 113
315 56 165 137 403 181 529 45 125 78 232 75 237 -3 5 -12 9 -20 9 -8 0 -14 5
-14 10 0 6 -84 10 -232 10 -128 0 -344 3 -481 7 l-247 6 -6 26 c-56 283 -195
513 -407 674 -240 184 -567 263 -862 211z m89 -60 c43 -15 47 -19 42 -43 -3
-14 -8 -46 -11 -71 -14 -103 -3 -91 -196 -210 l-180 -110 -149 0 -150 0 0 60
c0 59 0 60 56 115 128 126 344 239 514 268 14 2 25 5 26 6 0 0 22 -6 48 -15z
m375 -5 c119 -33 209 -80 294 -153 l78 -67 -3 -87 -3 -87 -184 -3 -184 -2
-144 81 c-80 45 -147 87 -149 94 -6 14 22 205 31 214 10 9 105 29 149 30 22 0
74 -8 115 -20z m484 -630 c59 -99 107 -186 107 -192 0 -6 -35 -92 -77 -190
l-78 -179 -160 7 c-88 4 -163 9 -167 11 -4 3 -56 78 -116 167 l-109 162 59
185 c32 101 62 188 66 192 4 4 68 9 142 11 74 1 156 4 181 5 l46 2 106 -181z
m-1164 -18 c28 -87 51 -165 51 -173 0 -8 -47 -88 -103 -179 l-104 -164 -74 4
c-41 2 -94 6 -118 10 l-44 6 -68 162 -69 162 80 165 79 166 160 0 160 0 50
-159z m1417 -228 c22 -147 -32 -405 -120 -568 -40 -74 -45 -80 -72 -77 -55 5
-54 1 -53 159 l0 148 77 185 c66 157 81 185 102 191 53 15 58 12 66 -38z
m-905 10 c11 -12 220 -333 226 -349 4 -11 -154 -267 -195 -316 -14 -16 -38
-18 -236 -18 l-221 0 -96 164 -97 165 95 168 c52 92 100 177 107 188 13 19 20
20 211 13 109 -3 201 -10 206 -15z m-1013 -178 c49 -129 66 -188 86 -305 23
-139 22 -170 -4 -170 -14 0 -97 173 -124 255 -43 136 -58 281 -40 375 9 40 7
43 82 -155z m2872 137 c0 -4 -128 -381 -284 -837 -156 -457 -366 -1071 -466
-1365 -100 -294 -188 -541 -194 -547 -40 -44 -729 -132 -946 -121 l-65 3 -3
866 -2 866 72 7 c160 16 289 52 423 118 358 179 583 529 586 916 l0 102 440 0
c241 0 439 -4 439 -8z m-2526 -818 c120 -97 215 -178 213 -181 -7 -7 -164 74
-228 117 -54 37 -199 183 -220 221 -24 46 31 9 235 -157z m1365 167 c47 -30
-175 -211 -414 -337 -58 -31 -105 -52 -105 -47 0 26 452 393 484 393 12 0 27
-4 35 -9z m-567 -137 l109 -97 -28 -31 c-16 -17 -55 -58 -86 -91 l-56 -60
-133 0 c-73 0 -160 4 -193 9 -58 8 -62 10 -152 99 -51 50 -93 96 -93 103 0 12
63 128 82 152 8 9 66 12 225 12 l215 0 110 -96z m-522 -575 c77 -17 130 -41
130 -58 0 -24 -37 -116 -46 -116 -5 1 -40 11 -78 23 -102 33 -215 31 -287 -5
-74 -38 -101 -85 -96 -170 5 -106 44 -138 311 -257 148 -66 224 -151 247 -278
29 -158 -54 -315 -204 -383 -137 -62 -352 -57 -509 13 l-47 20 21 69 c11 37
21 69 23 71 2 2 26 -8 54 -22 128 -65 297 -73 394 -18 113 63 140 211 55 308
-38 43 -87 72 -203 120 -157 65 -242 131 -287 223 -19 37 -23 63 -23 131 0 73
4 93 28 142 43 88 127 153 237 184 55 15 219 17 280 3z m-1360 -689 c162 -51
301 -95 308 -99 7 -4 -127 -63 -303 -133 l-315 -126 0 230 c0 126 3 227 8 225
4 -3 140 -46 302 -97z m3640 -125 c0 -124 -4 -225 -8 -225 -10 0 -598 237
-621 250 -10 5 7 15 55 29 38 11 177 54 309 95 132 41 246 74 253 75 9 1 12
-50 12 -224z m-3237 -257 c4 -144 4 -264 2 -267 -11 -11 -597 198 -682 243
-26 13 -27 15 -8 22 11 4 166 65 345 135 179 71 328 128 331 129 3 0 9 -118
12 -262z m2851 136 c171 -69 315 -129 319 -133 5 -5 -29 -24 -75 -44 -93 -40
-557 -201 -562 -196 -2 2 -6 115 -10 252 -6 193 -5 247 5 247 7 0 152 -57 323
-126z m-378 -380 c-4 -11 -123 -40 -131 -32 -3 3 25 92 62 199 l68 194 3 -175
c1 -96 1 -179 -2 -186z m-2361 153 c36 -102 65 -187 65 -190 0 -4 -67 6 -117
18 -23 5 -23 7 -23 187 0 100 2 179 5 176 3 -3 34 -88 70 -191z m-524 -85
c391 -146 776 -236 1234 -289 230 -26 710 -24 952 5 497 60 965 188 1377 376
43 20 80 36 82 36 6 0 4 -371 -3 -558 l-6 -173 -59 -30 c-160 -81 -484 -197
-718 -257 -447 -116 -938 -167 -1375 -143 -587 32 -1147 152 -1656 353 l-126
50 -6 370 c-4 203 -5 374 -2 378 3 5 42 -9 88 -29 45 -21 143 -61 218 -89z
m2369 -1055 c0 -1 -81 -243 -181 -537 -99 -294 -253 -749 -341 -1010 -88 -261
-164 -482 -169 -490 -5 -8 -7 427 -6 990 l2 1005 170 6 c178 7 487 28 494 35
5 4 31 6 31 1z"/>
<path d="M3520 3830 l0 -631 83 3 82 3 3 241 2 241 52 59 c28 33 55 60 59 62
4 2 99 -134 211 -302 l203 -305 98 -1 97 0 -72 108 c-39 59 -146 217 -238 352
-91 135 -169 250 -173 257 -4 7 83 117 218 275 l225 263 -92 3 c-50 1 -97 1
-103 -2 -13 -5 -370 -439 -446 -541 l-44 -60 -3 303 -2 302 -80 0 -80 0 0
-630z"/>
<path d="M3666 2846 c-14 -25 -26 -47 -26 -50 0 -3 15 -6 34 -6 37 0 74 24
106 70 l21 30 -54 0 c-55 0 -55 0 -81 -44z"/>
<path d="M2435 2823 c-15 -69 -23 -62 78 -79 45 -8 45 3 8 -224 -16 -96 -26
-178 -23 -182 4 -4 29 -8 57 -10 l49 -3 32 195 c18 107 33 195 33 196 1 0 28
-4 62 -9 68 -11 74 -8 82 45 5 34 3 37 -21 42 -35 7 -335 56 -344 56 -4 0 -10
-12 -13 -27z"/>
<path d="M4156 2823 c-16 -4 -18 -12 -11 -66 7 -63 31 -212 42 -257 3 -14 -16
8 -45 50 -28 41 -81 113 -117 159 l-67 83 -56 -7 c-32 -4 -61 -10 -65 -15 -5
-4 5 -104 22 -221 44 -302 34 -272 90 -264 25 4 48 9 50 11 3 3 -6 68 -45 319
l-6 40 31 -49 c18 -26 73 -102 123 -167 l91 -119 51 6 c28 4 54 9 58 13 4 3
-8 112 -27 241 -19 129 -35 238 -35 243 0 8 -53 8 -84 0z"/>
<path d="M1677 2793 c-4 -3 -7 -15 -7 -25 0 -13 7 -18 25 -18 14 0 25 -4 25
-8 0 -5 -14 -48 -30 -97 -17 -49 -27 -92 -23 -96 5 -4 17 -9 28 -11 16 -3 26
15 64 120 36 102 42 126 30 133 -16 10 -103 12 -112 2z"/>
<path d="M4918 2771 c-28 -25 -30 -31 -19 -45 12 -14 15 -14 38 4 29 23 54 25
71 8 19 -19 14 -49 -23 -126 -36 -76 -37 -107 -3 -96 151 47 170 60 150 92 -7
10 -17 9 -50 -2 -23 -8 -42 -14 -42 -12 0 2 9 23 20 47 25 57 25 100 -1 133
-30 38 -96 37 -141 -3z"/>
<path d="M2856 2723 c-25 -237 -36 -427 -26 -433 7 -4 57 -10 113 -14 56 -4
123 -9 150 -13 l47 -6 0 46 c0 52 4 50 -129 61 -35 4 -66 8 -69 11 -2 2 -1 29
3 60 l7 56 41 -5 c23 -3 65 -7 92 -8 l50 -3 0 45 c0 38 -3 45 -20 47 -11 1
-51 5 -88 8 l-68 7 3 46 3 47 97 -3 96 -2 7 41 c4 22 5 42 3 45 -7 6 -192 23
-255 24 l-51 0 -6 -57z"/>
<path d="M3655 2763 c-21 -4 -21 -4 -4 -249 9 -135 18 -247 20 -248 2 -2 28
-1 58 1 l54 6 -6 71 c-4 39 -12 151 -18 249 l-12 177 -36 -1 c-20 -1 -45 -4
-56 -6z"/>
<path d="M3210 2710 l0 -50 65 0 65 0 0 -199 0 -198 46 -7 c25 -3 50 -3 55 0
5 3 9 78 9 167 0 89 3 179 6 200 l7 37 63 0 64 0 0 50 0 50 -190 0 -190 0 0
-50z"/>
<path d="M1901 2727 c-28 -16 -50 -53 -51 -83 0 -34 37 -73 77 -80 34 -6 35
-8 18 -20 -10 -8 -38 -14 -61 -14 -44 0 -68 -25 -42 -42 27 -16 104 -9 139 15
67 45 91 150 46 202 -27 32 -90 42 -126 22z m87 -73 c4 -36 -18 -59 -47 -49
-26 8 -33 30 -19 61 9 19 18 24 37 22 21 -2 27 -9 29 -34z"/>
<path d="M4716 2700 c-30 -27 -34 -35 -25 -52 10 -19 11 -19 30 -2 10 9 21 15
23 13 2 -2 16 -44 31 -94 15 -49 29 -93 31 -96 8 -13 54 4 54 20 -1 9 -15 66
-33 126 -38 127 -51 137 -111 85z"/>
<path d="M2122 2630 c-25 -10 -42 -46 -34 -70 25 -71 122 -62 122 11 0 48 -43
76 -88 59z"/>
<path d="M4537 2618 c-9 -7 -19 -25 -22 -40 -5 -21 -1 -33 19 -52 14 -15 34
-26 46 -26 29 0 60 35 60 69 0 49 -63 79 -103 49z"/>
</g>
</svg>
