<svg xmlns="http://www.w3.org/2000/svg" viewBox="0 0 584.86 441.49"><defs><style>.cls-1{fill:#fff;}.cls-2{fill:#72aef7;}.cls-10,.cls-11,.cls-12,.cls-13,.cls-2,.cls-3,.cls-8,.cls-9{stroke:#000;}.cls-10,.cls-11,.cls-12,.cls-13,.cls-14,.cls-17,.cls-18,.cls-2,.cls-3,.cls-8,.cls-9{stroke-miterlimit:10;}.cls-14,.cls-17,.cls-18,.cls-3,.cls-8{fill:none;}.cls-4{fill:#69b7f7;opacity:0.43;}.cls-5{opacity:0.46;}.cls-6{fill:#6d6c6d;}.cls-7{fill:#f90606;}.cls-8{stroke-width:0.5px;}.cls-9{fill:#5b5a5b;opacity:0.33;}.cls-10,.cls-15{fill:#6ea7f9;}.cls-11{fill:#f9f906;}.cls-12{fill:#727270;}.cls-13{fill:#2323f7;}.cls-14{stroke:#fcfcfc;}.cls-16{fill:#15fc30;}.cls-17{stroke:#f9f9f9;stroke-width:0.75px;}.cls-18{stroke:#6ea7f9;}.cls-19{font-size:28.27px;font-family:MyriadPro-Regular, Myriad Pro;}.cls-20{fill:#843e0f;}.cls-21{fill:#1c1917;}.cls-22{fill:#6b6765;}</style></defs><g id="Vrstva_2" data-name="Vrstva 2"><g id="Vrstva_1-2" data-name="Vrstva 1"><path class="cls-1" d="M175.5,203.49a8,8,0,0,1-8-8v-121a8,8,0,0,1,8-8h23v-15h74v15h24a8,8,0,0,1,8,8v121a8,8,0,0,1-8,8Z"/><path d="M272,52V67h24.5a7.51,7.51,0,0,1,7.5,7.5v121a7.52,7.52,0,0,1-7.5,7.51h-121a7.52,7.52,0,0,1-7.5-7.51v-121a7.51,7.51,0,0,1,7.5-7.5H199V52h73m1-1H198V66H175.5a8.5,8.5,0,0,0-8.5,8.5v121a8.51,8.51,0,0,0,8.5,8.51h121a8.51,8.51,0,0,0,8.5-8.51v-121a8.5,8.5,0,0,0-8.5-8.5H273V51Z"/><path class="cls-2" d="M305,105.49V195a7.81,7.81,0,0,1-8,8.51H176a8.51,8.51,0,0,1-8.5-8.51V102"/><path class="cls-3" d="M582,57H361s3,384,0,384H323V57H9"/><rect class="cls-4" x="324" y="261.99" width="35.73" height="179"/><g class="cls-5"><path class="cls-6" d="M328,402V302.16a5.18,5.18,0,0,1,5.17-5.17h13.66a5.18,5.18,0,0,1,5.17,5.17V402Z"/><path d="M346.83,297.49a4.67,4.67,0,0,1,4.67,4.67v99.33h-23V302.16a4.67,4.67,0,0,1,4.67-4.67h13.66m0-1H333.17a5.67,5.67,0,0,0-5.67,5.67V402.49h25V302.16a5.67,5.67,0,0,0-5.67-5.67Z"/></g><rect class="cls-7" x="327.5" y="354.49" width="25" height="9"/><line class="cls-3" x1="328.5" y1="308.99" x2="352.5" y2="308.99"/><line class="cls-3" x1="328.5" y1="306.99" x2="352.5" y2="306.99"/><line class="cls-3" x1="327.5" y1="301.99" x2="352.5" y2="301.99"/><line class="cls-3" x1="338" y1="304.99" x2="344" y2="304.99"/><rect class="cls-8" x="338" y="298.99" width="6" height="1"/><rect class="cls-9" x="319" y="46.99" width="46" height="8"/><rect class="cls-10" x="338" y="54.99" width="4" height="242"/><line class="cls-3" x1="335" y1="46.99" x2="335" y2="54.99"/><line class="cls-3" x1="345" y1="46.99" x2="345" y2="54.99"/><circle class="cls-3" cx="332" cy="50.99" r="2"/><circle class="cls-3" cx="348" cy="50.99" r="2"/><path class="cls-10" d="M257,87h-6V53.14c-.14-1.46-.66-9.73,4.88-15.27,4.53-4.54,10.88-4.06,12.32-3.88H324c.95,0,9.38.13,14.12,4.88,5.4,5.4,4.9,15.76,4.88,16.12h-6c0-.05.33-8.43-3.12-11.88-2.54-2.54-8-3.12-9.89-3.12H267.75l-.24,0s-4.57-.67-7.39,2.16C256.25,46,257,52.56,257,52.63l0,.36Z"/><rect class="cls-11" x="274" y="31.99" width="10" height="9"/><rect class="cls-11" x="292" y="31.99" width="10" height="9"/><rect class="cls-11" x="278" y="27.99" width="2" height="4"/><rect class="cls-11" x="274" y="24.99" width="10" height="3"/><rect class="cls-1" x="309.5" y="29.49" width="2" height="3"/><path d="M311,30v2h-1V30h1m1-1h-3v4h3V29Z"/><circle class="cls-1" cx="310.5" cy="24.49" r="4.5"/><path d="M310.5,20.49a4,4,0,1,1-4,4,4,4,0,0,1,4-4m0-1a5,5,0,1,0,5,5,5,5,0,0,0-5-5Z"/><line class="cls-3" x1="311" y1="24.99" x2="306" y2="21.99"/><path class="cls-10" d="M197,34v8h12s4,0,6,2,2,8,2,8V177h7V52s-.5-9.5-4-13-9-5-9-5Z"/><rect class="cls-11" x="216" y="176.99" width="10" height="8"/><rect class="cls-12" x="217" y="184.99" width="8" height="11"/><line class="cls-3" x1="217" y1="192.99" x2="219.5" y2="195.49"/><line class="cls-3" x1="217" y1="189.99" x2="223" y2="195.99"/><line class="cls-3" x1="217" y1="186.99" x2="224.5" y2="194.49"/><line class="cls-3" x1="218" y1="184.99" x2="225" y2="191.99"/><line class="cls-3" x1="221" y1="184.99" x2="224.5" y2="188.49"/><line class="cls-3" x1="224" y1="184.99" x2="225" y2="185.99"/><line class="cls-3" x1="221" y1="184.99" x2="217.5" y2="188.49"/><line class="cls-3" x1="225" y1="184.99" x2="217" y2="192.99"/><line class="cls-3" x1="225" y1="188.99" x2="218" y2="195.99"/><line class="cls-3" x1="225" y1="192.99" x2="222" y2="195.99"/><path class="cls-13" d="M148,35V31h14v6h7a3.49,3.49,0,0,0,2-1V32l26,2V57l-25,2h-8l3-3V54h-4v1H140l-1-1V37h3Z"/><line class="cls-14" x1="145" y1="36.99" x2="145" y2="53.99"/><line class="cls-14" x1="149.5" y1="33.99" x2="161.5" y2="33.99"/><line class="cls-14" x1="149.5" y1="32.99" x2="161.5" y2="32.99"/><line class="cls-14" x1="147" y1="37.99" x2="163" y2="37.99"/><line class="cls-14" x1="147.5" y1="38.99" x2="163.5" y2="38.99"/><line class="cls-14" x1="147.5" y1="41.99" x2="163.5" y2="41.99"/><line class="cls-14" x1="147.5" y1="44.99" x2="163.5" y2="44.99"/><line class="cls-14" x1="147.5" y1="46.99" x2="163.5" y2="46.99"/><line class="cls-14" x1="147.5" y1="49.99" x2="163.5" y2="49.99"/><line class="cls-14" x1="147.5" y1="52.99" x2="163.5" y2="52.99"/><line class="cls-14" x1="164" y1="37.99" x2="164" y2="52.99"/><rect class="cls-14" x="166" y="41.99" width="4" height="8"/><line class="cls-14" x1="170" y1="36.99" x2="170" y2="57.99"/><line class="cls-14" x1="171" y1="37.49" x2="171" y2="58.49"/><line class="cls-14" x1="173" y1="33.99" x2="173" y2="57.99"/><path class="cls-14" d="M176,34l12,2s7,0,7,10-10,10-10,10l-9,1"/><polygon class="cls-10" points="182 32.99 173 31.99 173 25.99 182 25.99 182 32.99"/><path class="cls-10" d="M182,25a8.58,8.58,0,0,0-2-3c-1.5-1.5-5-2-5-2H142s-5,0-10,5-12,14-12,14l-3,4H87v3h35l5-5s7-12,12-13a51,51,0,0,1,9-1l34-.3Z"/><rect class="cls-15" x="173.5" y="25.49" width="8" height="3.5"/><rect class="cls-16" y="55.99" width="88" height="5"/><line class="cls-17" x1="1" y1="55.99" x2="1" y2="60.99"/><line class="cls-17" x1="3" y1="56.49" x2="3" y2="61.49"/><line class="cls-17" x1="5" y1="56.49" x2="5" y2="61.49"/><line class="cls-17" x1="7" y1="56.49" x2="7" y2="61.49"/><line class="cls-17" x1="9" y1="56.49" x2="9" y2="61.49"/><line class="cls-17" x1="11" y1="56.49" x2="11" y2="61.49"/><line class="cls-17" x1="13" y1="56.49" x2="13" y2="61.49"/><line class="cls-17" x1="15" y1="56.49" x2="15" y2="61.49"/><line class="cls-17" x1="17" y1="56.49" x2="17" y2="61.49"/><line class="cls-17" x1="19" y1="56.49" x2="19" y2="61.49"/><line class="cls-17" x1="21" y1="56.49" x2="21" y2="61.49"/><line class="cls-17" x1="23" y1="56.49" x2="23" y2="61.49"/><line class="cls-17" x1="25" y1="56.49" x2="25" y2="61.49"/><line class="cls-17" x1="27" y1="56.49" x2="27" y2="61.49"/><line class="cls-17" x1="29" y1="56.49" x2="29" y2="61.49"/><line class="cls-17" x1="31" y1="56.49" x2="31" y2="61.49"/><line class="cls-17" x1="33" y1="56.49" x2="33" y2="61.49"/><line class="cls-17" x1="35" y1="56.49" x2="35" y2="61.49"/><line class="cls-17" x1="37" y1="56.49" x2="37" y2="61.49"/><line class="cls-17" x1="39" y1="56.49" x2="39" y2="61.49"/><line class="cls-17" x1="41" y1="56.49" x2="41" y2="61.49"/><line class="cls-17" x1="43" y1="56.49" x2="43" y2="61.49"/><line class="cls-17" x1="45" y1="56.49" x2="45" y2="61.49"/><line class="cls-17" x1="47" y1="56.49" x2="47" y2="61.49"/><line class="cls-17" x1="49" y1="56.49" x2="49" y2="61.49"/><line class="cls-17" x1="51" y1="56.49" x2="51" y2="61.49"/><line class="cls-17" x1="53" y1="56.49" x2="53" y2="61.49"/><line class="cls-17" x1="55" y1="56.49" x2="55" y2="61.49"/><line class="cls-17" x1="57" y1="56.49" x2="57" y2="61.49"/><line class="cls-17" x1="59" y1="56.49" x2="59" y2="61.49"/><line class="cls-17" x1="61" y1="56.49" x2="61" y2="61.49"/><line class="cls-17" x1="63" y1="56.49" x2="63" y2="61.49"/><line class="cls-17" x1="65" y1="56.49" x2="65" y2="61.49"/><line class="cls-17" x1="67" y1="56.49" x2="67" y2="61.49"/><line class="cls-17" x1="69" y1="56.49" x2="69" y2="61.49"/><line class="cls-17" x1="71" y1="56.49" x2="71" y2="61.49"/><line class="cls-17" x1="73" y1="56.49" x2="73" y2="61.49"/><line class="cls-17" x1="75" y1="56.49" x2="75" y2="61.49"/><line class="cls-17" x1="77" y1="56.49" x2="77" y2="61.49"/><line class="cls-17" x1="79" y1="56.49" x2="79" y2="61.49"/><line class="cls-17" x1="81" y1="56.49" x2="81" y2="61.49"/><line class="cls-17" x1="83" y1="56.49" x2="83" y2="61.49"/><line class="cls-17" x1="85" y1="56.49" x2="85" y2="61.49"/><line class="cls-17" x1="87" y1="56.49" x2="87" y2="61.49"/><rect class="cls-1" x="90.86" y="40.75" width="0.97" height="20.72" transform="translate(-9.38 79.57) rotate(-45)"/><polygon points="84.37 42.74 82.98 44.13 98.33 59.49 99.73 58.09 84.37 42.74 84.37 42.74"/><rect x="80.87" y="38.03" width="0.97" height="6.18" transform="translate(-5.24 69.57) rotate(-45)"/><polygon points="79.52 37.88 78.12 39.27 83.2 44.35 84.59 42.96 79.52 37.88 79.52 37.88"/><rect class="cls-1" x="67.17" y="50.62" width="20.72" height="0.97" transform="translate(-13.43 69.79) rotate(-45)"/><polygon points="84.51 42.74 69.16 58.09 70.55 59.49 85.91 44.13 84.51 42.74 84.51 42.74"/><rect class="cls-1" x="84.28" y="44.7" width="0.97" height="14.14"/><polygon points="85.76 44.2 83.78 44.2 83.78 59.34 85.76 59.34 85.76 44.2 85.76 44.2"/><rect x="82.97" y="40.1" width="2.95" height="5.58"/><path d="M85.42,40.6v4.58h-2V40.6h2m1-1h-4v6.58h4V39.6Z"/><path class="cls-18" d="M78,37S72,10,49,3,17,6,17,6"/><path class="cls-18" d="M77.9,37.65S68.82,11.52,45.17,7.22,13.46,15.3,13.46,15.3"/><path class="cls-18" d="M78.47,37.33S65.94,12.67,41.92,11.61,11.31,25.55,11.31,25.55"/><path class="cls-18" d="M77.45,36.62S60,15.19,36.27,19.26,9,42,9,42"/><line class="cls-3" x1="251" y1="89.99" x2="243" y2="99.99"/><line class="cls-3" x1="256" y1="89.99" x2="262" y2="98.99"/><line class="cls-3" x1="253" y1="89.99" x2="253" y2="98.99"/><line class="cls-3" x1="528" y1="68.05" x2="528" y2="433.93"/><polygon points="528 60.99 523.93 70.94 528 68.58 532.06 70.94 528 60.99"/><polygon points="528 440.99 523.93 431.04 528 433.4 532.06 431.04 528 440.99"/><text class="cls-19" transform="translate(577.79 267.4) rotate(-90)">120 m</text><path class="cls-20" d="M316,262V441H73s1-133,41-148,36,5,83-1S316,262,316,262Z"/><path class="cls-20" d="M372,262V441H515s5-83-19-95-74-14-76-37S372,262,372,262Z"/><ellipse class="cls-21" cx="284" cy="410.49" rx="11.5" ry="8"/><ellipse class="cls-21" cx="388" cy="418.49" rx="11.5" ry="8"/><ellipse class="cls-21" cx="292" cy="349.49" rx="11.5" ry="8"/><ellipse class="cls-21" cx="270" cy="319.49" rx="11.5" ry="8"/><ellipse class="cls-21" cx="247" cy="329.49" rx="11.5" ry="8"/><ellipse class="cls-21" cx="181" cy="327.49" rx="11.5" ry="8"/><ellipse class="cls-21" cx="420" cy="341.49" rx="11.5" ry="8"/><ellipse class="cls-21" cx="393" cy="363.49" rx="11.5" ry="8"/><ellipse class="cls-21" cx="461" cy="359.49" rx="11.5" ry="8"/><ellipse class="cls-21" cx="251" cy="395.49" rx="11.5" ry="8"/><ellipse class="cls-21" cx="259" cy="371.49" rx="11.5" ry="8"/><ellipse class="cls-21" cx="208" cy="395.49" rx="11.5" ry="8"/><ellipse class="cls-21" cx="292" cy="289.49" rx="11.5" ry="8"/><ellipse class="cls-21" cx="224" cy="423.49" rx="11.5" ry="8"/><ellipse class="cls-21" cx="208" cy="351.49" rx="11.5" ry="8"/><ellipse class="cls-21" cx="393" cy="306.49" rx="11.5" ry="8"/><ellipse class="cls-21" cx="161" cy="357.49" rx="11.5" ry="8"/><ellipse class="cls-21" cx="418" cy="395.49" rx="11.5" ry="8"/><ellipse class="cls-21" cx="134" cy="390.49" rx="11.5" ry="8"/><ellipse class="cls-21" cx="456" cy="423.49" rx="11.5" ry="8"/><ellipse class="cls-21" cx="489" cy="402.49" rx="11.5" ry="8"/><ellipse class="cls-22" cx="284.5" cy="379.49" rx="4" ry="8"/><ellipse class="cls-22" cx="388.5" cy="387.49" rx="4" ry="8"/><ellipse class="cls-22" cx="295.5" cy="319.49" rx="4" ry="8"/><ellipse class="cls-22" cx="252.5" cy="426.49" rx="4" ry="8"/><ellipse class="cls-22" cx="229.5" cy="374.49" rx="4" ry="8"/><ellipse class="cls-22" cx="219.5" cy="321.49" rx="4" ry="8"/><ellipse class="cls-22" cx="185.5" cy="371.49" rx="4" ry="8"/><ellipse class="cls-22" cx="166.5" cy="395.49" rx="4" ry="8"/><ellipse class="cls-22" cx="126.5" cy="359.49" rx="4" ry="8"/><ellipse class="cls-22" cx="456.5" cy="390.49" rx="4" ry="8"/><ellipse class="cls-22" cx="420.5" cy="425.49" rx="4" ry="8"/><ellipse class="cls-22" cx="146.5" cy="329.49" rx="4" ry="8"/><ellipse class="cls-22" cx="421.5" cy="365.49" rx="4" ry="8"/><ellipse class="cls-22" cx="261.5" cy="345.49" rx="4" ry="8"/><ellipse class="cls-22" cx="392.5" cy="335.49" rx="4" ry="8"/><ellipse class="cls-22" cx="181.5" cy="423.49" rx="4" ry="8"/><ellipse class="cls-22" cx="149.5" cy="423.49" rx="4" ry="8"/><ellipse class="cls-22" cx="113.5" cy="423.49" rx="4" ry="8"/></g></g></svg>